<?xml version="1.0" encoding="UTF-8"?>
<!DOCTYPE svg PUBLIC "-//W3C//DTD SVG 1.1//EN" "http://www.w3.org/Graphics/SVG/1.1/DTD/svg11.dtd">
<svg xmlns="http://www.w3.org/2000/svg" version="1.1" width="299px" height="76px" style="shape-rendering:geometricPrecision; text-rendering:geometricPrecision; image-rendering:optimizeQuality; fill-rule:evenodd; clip-rule:evenodd" xmlns:xlink="http://www.w3.org/1999/xlink">
<g><path style="opacity:0.823" fill="#f8fbff" d="M 175.5,8.5 C 197.594,5.85861 209.594,15.5253 211.5,37.5C 210.756,57.577 200.423,67.9103 180.5,68.5C 158.352,66.8273 148.852,54.8273 152,32.5C 154.68,19.3206 162.514,11.3206 175.5,8.5 Z M 181.5,11.5 C 198.028,12.5286 206.695,21.362 207.5,38C 205.16,59.8494 193.16,68.5161 171.5,64C 160.661,59.8034 155.328,51.8034 155.5,40C 156.101,22.9071 164.767,13.4071 181.5,11.5 Z"/></g>
<g><path style="opacity:0.86" fill="#f8fbff" d="M 5.5,10.5 C 7.54628,9.03468 9.37962,9.36801 11,11.5C 16.6774,28.7006 22.844,45.7006 29.5,62.5C 38.6041,45.2915 47.4375,27.9582 56,10.5C 57.7261,9.42378 59.5594,9.25711 61.5,10C 51.4503,28.5986 41.7836,47.4319 32.5,66.5C 30.3052,67.7691 28.1385,67.7691 26,66.5C 19.4322,47.6197 12.5988,28.9531 5.5,10.5 Z"/></g>
<g><path style="opacity:0.876" fill="#f8fbff" d="M 88.5,9.5 C 99.8333,9.5 111.167,9.5 122.5,9.5C 122.853,11.6348 122.02,12.9681 120,13.5C 110.875,12.5401 101.708,12.2068 92.5,12.5C 92.3564,20.5097 92.0231,28.5097 91.5,36.5C 100.5,36.5 109.5,36.5 118.5,36.5C 118.5,37.5 118.5,38.5 118.5,39.5C 109.5,39.5 100.5,39.5 91.5,39.5C 91.3881,47.8442 91.0548,56.1775 90.5,64.5C 100.5,64.5 110.5,64.5 120.5,64.5C 120.923,67.2431 119.756,68.5765 117,68.5C 106.823,67.1808 96.6562,67.1808 86.5,68.5C 87.0113,48.8265 87.678,29.1598 88.5,9.5 Z"/></g>
<g><path style="opacity:0.886" fill="#f8fbff" d="M 244.5,9.5 C 245.833,9.5 247.167,9.5 248.5,9.5C 248.642,18.5243 248.308,27.5243 247.5,36.5C 260.5,36.5 273.5,36.5 286.5,36.5C 286.5,27.5 286.5,18.5 286.5,9.5C 288.167,9.5 289.833,9.5 291.5,9.5C 290.629,28.8251 289.962,48.1584 289.5,67.5C 287.833,67.5 286.167,67.5 284.5,67.5C 285.354,58.1945 285.687,48.8612 285.5,39.5C 272.833,39.5 260.167,39.5 247.5,39.5C 247.61,48.8544 247.277,58.1877 246.5,67.5C 245.178,67.33 244.011,67.6634 243,68.5C 243.048,48.8294 243.548,29.1627 244.5,9.5 Z"/></g>
</svg>
